<svg width="239" height="38" viewBox="0 0 239 38" fill="none" xmlns="http://www.w3.org/2000/svg">
<path d="M69.5483 14.7415C69.482 14.0123 69.187 13.4455 68.6634 13.0412C68.1463 12.6302 67.4072 12.4247 66.446 12.4247C65.8097 12.4247 65.2794 12.5076 64.8551 12.6733C64.4309 12.839 64.1127 13.0677 63.9006 13.3594C63.6884 13.6444 63.5791 13.9725 63.5724 14.3438C63.5592 14.6487 63.6188 14.9171 63.7514 15.1491C63.8906 15.3812 64.0895 15.5866 64.348 15.7656C64.6132 15.938 64.9313 16.0904 65.3026 16.223C65.6738 16.3556 66.0914 16.4716 66.5554 16.571L68.3054 16.9688C69.313 17.1875 70.2012 17.4792 70.9702 17.8438C71.7457 18.2083 72.3954 18.6425 72.919 19.1463C73.4493 19.6501 73.8504 20.2301 74.1222 20.8864C74.3939 21.5426 74.5331 22.2784 74.5398 23.0938C74.5331 24.3797 74.2083 25.4834 73.5653 26.4048C72.9223 27.3262 71.9976 28.0322 70.7912 28.5227C69.5914 29.0133 68.143 29.2585 66.446 29.2585C64.7424 29.2585 63.2576 29.0033 61.9915 28.4929C60.7254 27.9825 59.741 27.2069 59.0384 26.1662C58.3357 25.1255 57.9744 23.8097 57.9545 22.2188H62.6676C62.7074 22.875 62.883 23.4219 63.1946 23.8594C63.5062 24.2969 63.9337 24.6283 64.4773 24.8537C65.0275 25.0791 65.6638 25.1918 66.3864 25.1918C67.0492 25.1918 67.6127 25.1023 68.0767 24.9233C68.5473 24.7443 68.9086 24.4957 69.1605 24.1776C69.4124 23.8594 69.5417 23.4948 69.5483 23.0838C69.5417 22.6993 69.4223 22.3712 69.1903 22.0994C68.9583 21.821 68.6004 21.5824 68.1165 21.3835C67.6392 21.178 67.0294 20.9891 66.2869 20.8168L64.1591 20.3196C62.3958 19.9152 61.0071 19.2623 59.9929 18.3608C58.9787 17.4527 58.4749 16.2263 58.4815 14.6818C58.4749 13.4223 58.813 12.3187 59.4957 11.3707C60.1785 10.4228 61.1231 9.68371 62.3295 9.15341C63.536 8.62311 64.9115 8.35795 66.456 8.35795C68.0336 8.35795 69.4025 8.62642 70.5625 9.16335C71.7292 9.69365 72.634 10.4394 73.277 11.4006C73.92 12.3617 74.2481 13.4754 74.2614 14.7415H69.5483ZM82.1678 20.2898V29H77.3056V8.63636H82.0087V16.5312H82.1777C82.5224 15.59 83.0859 14.8542 83.8681 14.3239C84.6569 13.7936 85.6214 13.5284 86.7615 13.5284C87.8354 13.5284 88.7701 13.767 89.5655 14.2443C90.361 14.715 90.9774 15.3812 91.4149 16.2429C91.8591 17.1046 92.0778 18.1122 92.0712 19.2656V29H87.209V20.2202C87.2156 19.3717 87.0035 18.7088 86.5726 18.2315C86.1417 17.7543 85.5352 17.5156 84.753 17.5156C84.2426 17.5156 83.7918 17.6283 83.4007 17.8537C83.0163 18.0724 82.7147 18.3873 82.4959 18.7983C82.2838 19.2093 82.1744 19.7064 82.1678 20.2898ZM102.526 29.2884C100.928 29.2884 99.5492 28.9735 98.3892 28.3438C97.2358 27.7074 96.3475 26.8026 95.7244 25.6293C95.1079 24.4493 94.7997 23.0473 94.7997 21.4233C94.7997 19.8456 95.1113 18.4669 95.7344 17.2869C96.3575 16.1004 97.2358 15.179 98.3693 14.5227C99.5028 13.8598 100.839 13.5284 102.376 13.5284C103.464 13.5284 104.458 13.6974 105.359 14.0355C106.261 14.3736 107.04 14.8741 107.696 15.5369C108.352 16.1998 108.863 17.0185 109.227 17.9929C109.592 18.9607 109.774 20.071 109.774 21.3239V22.5369H96.5V19.7131H105.25C105.243 19.196 105.121 18.7353 104.882 18.331C104.643 17.9266 104.315 17.6117 103.898 17.3864C103.487 17.1544 103.013 17.0384 102.476 17.0384C101.932 17.0384 101.445 17.161 101.014 17.4062C100.583 17.6449 100.242 17.973 99.99 18.3906C99.7382 18.8016 99.6056 19.2689 99.5923 19.7926V22.6662C99.5923 23.2893 99.7149 23.8362 99.9602 24.3068C100.205 24.7708 100.553 25.1321 101.004 25.3906C101.455 25.6491 101.992 25.7784 102.615 25.7784C103.046 25.7784 103.437 25.7187 103.788 25.5994C104.14 25.4801 104.441 25.3045 104.693 25.0724C104.945 24.8404 105.134 24.5554 105.26 24.2173L109.724 24.3466C109.539 25.3475 109.131 26.2192 108.501 26.9616C107.878 27.6974 107.06 28.2708 106.045 28.6818C105.031 29.0862 103.858 29.2884 102.526 29.2884ZM119.677 29.2884C118.079 29.2884 116.7 28.9735 115.54 28.3438C114.387 27.7074 113.499 26.8026 112.876 25.6293C112.259 24.4493 111.951 23.0473 111.951 21.4233C111.951 19.8456 112.262 18.4669 112.885 17.2869C113.509 16.1004 114.387 15.179 115.52 14.5227C116.654 13.8598 117.99 13.5284 119.528 13.5284C120.615 13.5284 121.609 13.6974 122.51 14.0355C123.412 14.3736 124.191 14.8741 124.847 15.5369C125.503 16.1998 126.014 17.0185 126.378 17.9929C126.743 18.9607 126.925 20.071 126.925 21.3239V22.5369H113.651V19.7131H122.401C122.394 19.196 122.272 18.7353 122.033 18.331C121.795 17.9266 121.466 17.6117 121.049 17.3864C120.638 17.1544 120.164 17.0384 119.627 17.0384C119.083 17.0384 118.596 17.161 118.165 17.4062C117.734 17.6449 117.393 17.973 117.141 18.3906C116.889 18.8016 116.757 19.2689 116.743 19.7926V22.6662C116.743 23.2893 116.866 23.8362 117.111 24.3068C117.357 24.7708 117.705 25.1321 118.155 25.3906C118.606 25.6491 119.143 25.7784 119.766 25.7784C120.197 25.7784 120.588 25.7187 120.939 25.5994C121.291 25.4801 121.592 25.3045 121.844 25.0724C122.096 24.8404 122.285 24.5554 122.411 24.2173L126.876 24.3466C126.69 25.3475 126.282 26.2192 125.653 26.9616C125.029 27.6974 124.211 28.2708 123.197 28.6818C122.182 29.0862 121.009 29.2884 119.677 29.2884ZM129.689 29V13.7273H134.412V16.5114H134.571C134.849 15.5038 135.303 14.7547 135.933 14.2642C136.563 13.767 137.295 13.5185 138.13 13.5185C138.356 13.5185 138.588 13.535 138.826 13.5682C139.065 13.5947 139.287 13.6378 139.493 13.6974V17.9233C139.261 17.8437 138.956 17.7808 138.578 17.7344C138.207 17.688 137.875 17.6648 137.583 17.6648C137.007 17.6648 136.486 17.794 136.022 18.0526C135.565 18.3045 135.204 18.6591 134.939 19.1165C134.68 19.5672 134.551 20.0975 134.551 20.7074V29H129.689Z" fill="black"/>
<path d="M152.409 27V15.3636H153.818V20.5455H160.023V15.3636H161.432V27H160.023V21.7955H153.818V27H152.409ZM167.73 27.1818C166.889 27.1818 166.164 26.9962 165.554 26.625C164.948 26.25 164.48 25.7273 164.151 25.0568C163.825 24.3826 163.662 23.5985 163.662 22.7045C163.662 21.8106 163.825 21.0227 164.151 20.3409C164.48 19.6553 164.938 19.1212 165.526 18.7386C166.116 18.3523 166.806 18.1591 167.594 18.1591C168.048 18.1591 168.497 18.2348 168.94 18.3864C169.384 18.5379 169.787 18.7841 170.151 19.125C170.514 19.4621 170.804 19.9091 171.02 20.4659C171.236 21.0227 171.344 21.7083 171.344 22.5227V23.0909H164.616V21.9318H169.98C169.98 21.4394 169.882 21 169.685 20.6136C169.491 20.2273 169.215 19.9223 168.855 19.6989C168.499 19.4754 168.079 19.3636 167.594 19.3636C167.06 19.3636 166.598 19.4962 166.207 19.7614C165.821 20.0227 165.524 20.3636 165.315 20.7841C165.107 21.2045 165.003 21.6553 165.003 22.1364V22.9091C165.003 23.5682 165.116 24.1269 165.344 24.5852C165.575 25.0398 165.895 25.3864 166.304 25.625C166.713 25.8598 167.188 25.9773 167.73 25.9773C168.082 25.9773 168.401 25.928 168.685 25.8295C168.973 25.7273 169.221 25.5758 169.429 25.375C169.637 25.1705 169.798 24.9167 169.912 24.6136L171.207 24.9773C171.071 25.4167 170.842 25.803 170.52 26.1364C170.198 26.4659 169.8 26.7235 169.327 26.9091C168.853 27.0909 168.321 27.1818 167.73 27.1818ZM174.724 15.3636V27H173.384V15.3636H174.724ZM177.18 30.2727V18.2727H178.476V19.6591H178.635C178.733 19.5076 178.87 19.3144 179.044 19.0795C179.222 18.8409 179.476 18.6288 179.805 18.4432C180.139 18.2538 180.589 18.1591 181.158 18.1591C181.893 18.1591 182.54 18.3428 183.101 18.7102C183.661 19.0777 184.099 19.5985 184.413 20.2727C184.728 20.947 184.885 21.7424 184.885 22.6591C184.885 23.5833 184.728 24.3845 184.413 25.0625C184.099 25.7367 183.663 26.2595 183.107 26.6307C182.55 26.9981 181.908 27.1818 181.18 27.1818C180.62 27.1818 180.171 27.089 179.834 26.9034C179.497 26.714 179.237 26.5 179.055 26.2614C178.874 26.0189 178.733 25.8182 178.635 25.6591H178.521V30.2727H177.18ZM178.499 22.6364C178.499 23.2955 178.595 23.8769 178.788 24.3807C178.982 24.8807 179.264 25.2727 179.635 25.5568C180.006 25.8371 180.461 25.9773 180.999 25.9773C181.559 25.9773 182.027 25.8295 182.402 25.5341C182.781 25.2348 183.065 24.8333 183.254 24.3295C183.447 23.822 183.544 23.2576 183.544 22.6364C183.544 22.0227 183.449 21.4697 183.26 20.9773C183.074 20.4811 182.792 20.089 182.413 19.8011C182.038 19.5095 181.567 19.3636 180.999 19.3636C180.453 19.3636 179.995 19.5019 179.624 19.7784C179.252 20.0511 178.972 20.4337 178.783 20.9261C178.593 21.4148 178.499 21.9848 178.499 22.6364ZM194.976 27.1818C194.158 27.1818 193.453 26.9886 192.862 26.6023C192.271 26.2159 191.817 25.6837 191.499 25.0057C191.18 24.3277 191.021 23.553 191.021 22.6818C191.021 21.7955 191.184 21.0133 191.51 20.3352C191.839 19.6534 192.298 19.1212 192.885 18.7386C193.476 18.3523 194.165 18.1591 194.953 18.1591C195.567 18.1591 196.12 18.2727 196.612 18.5C197.105 18.7273 197.508 19.0455 197.822 19.4545C198.137 19.8636 198.332 20.3409 198.408 20.8864H197.067C196.964 20.4886 196.737 20.1364 196.385 19.8295C196.036 19.5189 195.567 19.3636 194.976 19.3636C194.453 19.3636 193.995 19.5 193.601 19.7727C193.211 20.0417 192.906 20.4223 192.686 20.9148C192.47 21.4034 192.362 21.9773 192.362 22.6364C192.362 23.3106 192.468 23.8977 192.68 24.3977C192.896 24.8977 193.199 25.286 193.589 25.5625C193.983 25.839 194.446 25.9773 194.976 25.9773C195.324 25.9773 195.641 25.9167 195.925 25.7955C196.209 25.6742 196.449 25.5 196.646 25.2727C196.843 25.0455 196.983 24.7727 197.067 24.4545H198.408C198.332 24.9697 198.144 25.4337 197.845 25.8466C197.55 26.2557 197.158 26.5814 196.669 26.8239C196.184 27.0625 195.62 27.1818 194.976 27.1818ZM204.027 27.1818C203.186 27.1818 202.461 26.9962 201.851 26.625C201.245 26.25 200.777 25.7273 200.447 25.0568C200.122 24.3826 199.959 23.5985 199.959 22.7045C199.959 21.8106 200.122 21.0227 200.447 20.3409C200.777 19.6553 201.235 19.1212 201.822 18.7386C202.413 18.3523 203.103 18.1591 203.891 18.1591C204.345 18.1591 204.794 18.2348 205.237 18.3864C205.68 18.5379 206.084 18.7841 206.447 19.125C206.811 19.4621 207.101 19.9091 207.317 20.4659C207.533 21.0227 207.641 21.7083 207.641 22.5227V23.0909H200.913V21.9318H206.277C206.277 21.4394 206.179 21 205.982 20.6136C205.788 20.2273 205.512 19.9223 205.152 19.6989C204.796 19.4754 204.375 19.3636 203.891 19.3636C203.357 19.3636 202.894 19.4962 202.504 19.7614C202.118 20.0227 201.821 20.3636 201.612 20.7841C201.404 21.2045 201.3 21.6553 201.3 22.1364V22.9091C201.3 23.5682 201.413 24.1269 201.641 24.5852C201.872 25.0398 202.192 25.3864 202.601 25.625C203.01 25.8598 203.485 25.9773 204.027 25.9773C204.379 25.9773 204.697 25.928 204.982 25.8295C205.269 25.7273 205.518 25.5758 205.726 25.375C205.934 25.1705 206.095 24.9167 206.209 24.6136L207.504 24.9773C207.368 25.4167 207.139 25.803 206.817 26.1364C206.495 26.4659 206.097 26.7235 205.624 26.9091C205.15 27.0909 204.618 27.1818 204.027 27.1818ZM211.021 21.75V27H209.68V18.2727H210.976V19.6364H211.089C211.294 19.1932 211.605 18.8371 212.021 18.5682C212.438 18.2955 212.976 18.1591 213.635 18.1591C214.226 18.1591 214.743 18.2803 215.186 18.5227C215.629 18.7614 215.974 19.125 216.22 19.6136C216.466 20.0985 216.589 20.7121 216.589 21.4545V27H215.249V21.5455C215.249 20.8598 215.071 20.3258 214.714 19.9432C214.358 19.5568 213.87 19.3636 213.249 19.3636C212.821 19.3636 212.438 19.4564 212.101 19.642C211.768 19.8277 211.504 20.0985 211.311 20.4545C211.118 20.8106 211.021 21.2424 211.021 21.75ZM222.835 18.2727V19.4091H218.312V18.2727H222.835ZM219.631 16.1818H220.972V24.5C220.972 24.8788 221.027 25.1629 221.136 25.3523C221.25 25.5379 221.394 25.6629 221.568 25.7273C221.746 25.7879 221.934 25.8182 222.131 25.8182C222.278 25.8182 222.4 25.8106 222.494 25.7955C222.589 25.7765 222.665 25.7614 222.722 25.75L222.994 26.9545C222.903 26.9886 222.777 27.0227 222.614 27.0568C222.451 27.0947 222.244 27.1136 221.994 27.1136C221.616 27.1136 221.244 27.0322 220.881 26.8693C220.521 26.7064 220.222 26.4583 219.983 26.125C219.748 25.7917 219.631 25.3712 219.631 24.8636V16.1818ZM228.418 27.1818C227.577 27.1818 226.851 26.9962 226.241 26.625C225.635 26.25 225.168 25.7273 224.838 25.0568C224.512 24.3826 224.349 23.5985 224.349 22.7045C224.349 21.8106 224.512 21.0227 224.838 20.3409C225.168 19.6553 225.626 19.1212 226.213 18.7386C226.804 18.3523 227.493 18.1591 228.281 18.1591C228.736 18.1591 229.185 18.2348 229.628 18.3864C230.071 18.5379 230.474 18.7841 230.838 19.125C231.202 19.4621 231.491 19.9091 231.707 20.4659C231.923 21.0227 232.031 21.7083 232.031 22.5227V23.0909H225.304V21.9318H230.668C230.668 21.4394 230.569 21 230.372 20.6136C230.179 20.2273 229.902 19.9223 229.543 19.6989C229.187 19.4754 228.766 19.3636 228.281 19.3636C227.747 19.3636 227.285 19.4962 226.895 19.7614C226.509 20.0227 226.211 20.3636 226.003 20.7841C225.795 21.2045 225.69 21.6553 225.69 22.1364V22.9091C225.69 23.5682 225.804 24.1269 226.031 24.5852C226.262 25.0398 226.582 25.3864 226.991 25.625C227.401 25.8598 227.876 25.9773 228.418 25.9773C228.77 25.9773 229.088 25.928 229.372 25.8295C229.66 25.7273 229.908 25.5758 230.116 25.375C230.325 25.1705 230.486 24.9167 230.599 24.6136L231.895 24.9773C231.759 25.4167 231.529 25.803 231.207 26.1364C230.885 26.4659 230.488 26.7235 230.014 26.9091C229.541 27.0909 229.009 27.1818 228.418 27.1818ZM234.071 27V18.2727H235.366V19.5909H235.457C235.616 19.1591 235.904 18.8087 236.321 18.5398C236.738 18.2708 237.207 18.1364 237.73 18.1364C237.829 18.1364 237.952 18.1383 238.099 18.142C238.247 18.1458 238.359 18.1515 238.435 18.1591V19.5227C238.389 19.5114 238.285 19.4943 238.122 19.4716C237.963 19.4451 237.795 19.4318 237.616 19.4318C237.192 19.4318 236.813 19.5208 236.48 19.6989C236.151 19.8731 235.889 20.1155 235.696 20.4261C235.507 20.733 235.412 21.0833 235.412 21.4773V27H234.071Z" fill="#64748B"/>
<rect width="38" height="38" rx="8" fill="black"/>
<g clip-path="url(#clip0_1_26)">
<path opacity="0.8" fill-rule="evenodd" clip-rule="evenodd" d="M22.5272 30.8041C22.5272 30.8041 23.4386 25.7951 21.0511 21.7073C20.4013 20.6121 19.6314 19.5942 18.7558 18.6726C16.9694 16.84 14.8777 15.1541 13.038 13.6098C11.0286 11.9141 10.7402 11.7088 10.7402 11.7088C10.7402 11.7088 12.9895 13.0723 15.3164 13.3044C19.3011 13.7027 23.8143 12.9794 25.9206 12.9819C28.0269 12.9843 28.8801 12.6227 27.1931 17.3971C25.4819 22.2302 22.5272 30.8041 22.5272 30.8041Z" fill="url(#paint0_linear_1_26)"/>
<path opacity="0.8" fill-rule="evenodd" clip-rule="evenodd" d="M22.4666 25.6878C22.4666 25.6878 21.9528 20.1217 23.1938 16.4639C24.6069 12.271 29.3333 10.3041 29.3333 10.3041C29.3333 10.3041 24.2287 8.50082 19.4126 7.40617C14.5965 6.31152 9.49917 5.62004 8.48843 7.55522C7.73947 8.98706 9.94273 11.0517 9.94273 11.0517C9.94273 11.0517 14.7395 14.9905 17.4566 17.4046C18.9546 18.6874 20.2151 20.2278 21.1796 21.9543C22.3042 24.0849 22.4666 25.6878 22.4666 25.6878Z" fill="url(#paint1_linear_1_26)"/>
<path opacity="0.8" fill-rule="evenodd" clip-rule="evenodd" d="M14.5868 27.0877C14.5868 27.0877 16.8288 29.3601 18.7752 30.7211C20.7215 32.082 22.154 31.9086 22.5975 30.6282C22.9126 29.7217 25.6443 21.7415 27.084 17.6952C27.5882 16.2805 27.833 15.3911 27.833 15.3911C27.833 15.3911 26.3957 17.7905 23.0532 21.2944C19.4441 25.0768 14.5868 27.0877 14.5868 27.0877Z" fill="url(#paint2_linear_1_26)"/>
</g>
<defs>
<linearGradient id="paint0_linear_1_26" x1="18.7582" y1="25.6363" x2="19.4946" y2="11.4895" gradientUnits="userSpaceOnUse">
<stop stop-color="#E5BAD6"/>
<stop offset="0.12" stop-color="#DEB5D3"/>
<stop offset="0.29" stop-color="#CAA7CC"/>
<stop offset="0.5" stop-color="#AA90BF"/>
<stop offset="0.74" stop-color="#7E70AD"/>
<stop offset="1" stop-color="#434596"/>
</linearGradient>
<linearGradient id="paint1_linear_1_26" x1="18.6927" y1="3.92431" x2="19.0622" y2="17.7294" gradientUnits="userSpaceOnUse">
<stop stop-color="#4859C0"/>
<stop offset="0.19" stop-color="#4D5BB4"/>
<stop offset="0.56" stop-color="#5E97BD"/>
<stop offset="0.85" stop-color="#69B8CD"/>
<stop offset="1" stop-color="#6DC4D3"/>
</linearGradient>
<linearGradient id="paint2_linear_1_26" x1="26.6429" y1="17.1796" x2="17.4984" y2="30.3003" gradientUnits="userSpaceOnUse">
<stop offset="0.515625" stop-color="#9152E2"/>
<stop offset="1" stop-color="#E49539"/>
</linearGradient>
<clipPath id="clip0_1_26">
<rect width="21" height="25.3333" fill="white" transform="translate(8.33333 6.33333)"/>
</clipPath>
</defs>
</svg>
